<svg xmlns="http://www.w3.org/2000/svg" viewBox="0 0 100 100" width="100" height="100">
  <defs>
    <linearGradient id="tomatoGradient" x1="0%" y1="0%" x2="100%" y2="100%">
      <stop offset="0%" stop-color="#ff6b6b"/>
      <stop offset="100%" stop-color="#ee5a24"/>
    </linearGradient>
    <linearGradient id="leafGradient" x1="0%" y1="0%" x2="100%" y2="100%">
      <stop offset="0%" stop-color="#44bd32"/>
      <stop offset="100%" stop-color="#2ed573"/>
    </linearGradient>
  </defs>
  <!-- 番茄主体 -->
  <path d="M50,15 C35,15 25,30 25,50 C25,75 50,85 50,85 C50,85 75,75 75,50 C75,30 65,15 50,15 Z" 
        fill="url(#tomatoGradient)"/>
  <!-- 高光效果 -->
  <path d="M40,30 C45,25 55,25 60,30 C65,35 65,45 60,50 C55,55 45,55 40,50 C35,45 35,35 40,30 Z" 
        fill="rgba(255,255,255,0.2)"/>
  <!-- 叶子 -->
  <path d="M40,15 C30,5 45,0 50,5 C55,0 70,5 60,15" 
        stroke="url(#leafGradient)" 
        stroke-width="5" 
        fill="none" 
        stroke-linecap="round"/>
  <path d="M50,5 C45,0 55,0 50,5" 
        stroke="url(#leafGradient)" 
        stroke-width="3" 
        fill="none"/>
  <!-- 小叶子 -->
  <path d="M45,10 C40,5 45,0 50,5" 
        stroke="url(#leafGradient)" 
        stroke-width="2" 
        fill="none" 
        stroke-linecap="round"/>
  <path d="M55,10 C60,5 55,0 50,5" 
        stroke="url(#leafGradient)" 
        stroke-width="2" 
        fill="none" 
        stroke-linecap="round"/>
</svg>